<?xml version="1.0" encoding="utf-8"?>
<!-- Generator: Adobe Illustrator 19.2.1, SVG Export Plug-In . SVG Version: 6.00 Build 0)  -->
<svg version="1.1" id="Слой_1" xmlns="http://www.w3.org/2000/svg" xmlns:xlink="http://www.w3.org/1999/xlink" x="0px" y="0px"
	 viewBox="0 0 294 384.0099487" style="enable-background:new 0 0 294 384.0099487;" xml:space="preserve">
<path d="M243,0H51c-7.0700073,0-12.7999878,5.7299805-12.7999878,12.7999878v44.7999878
	c0,7.0700073,5.7299805,12.8000488,12.7999878,12.8000488h19.2000122v32c0,2.4899902-2.0499878-1.6700439,38.3999634,65.789978
	v22.0200195c0,4.7399902,0,4.0299683,18.2400513,33.9799805c2.2699585,3.9400024,6.4599609,6.3800049,11.0099487,6.4000244
	h15.5500488v-0.1900024h2.75c4.5499878-0.0300293,8.7399902-2.460022,11.0099487-6.4000244
	c17.6600342-29.4400024,18.2400513-29.25,18.2400513-33.9799805v-21.8300171
	c40.2599487-67.1300049,38.3999634-63.2299805,38.3999634-65.789978v-32H243
	c7.0700073,0,12.7999878-5.7300415,12.7999878-12.8000488V12.7999878C255.7999878,5.7299805,250.0700073,0,243,0z
	 M172.5999756,190.210022l-16.4499512,27.3899536h-18.3000488l-16.4499512-27.3899536v-17.4100342h51.1999512V190.210022z M211,96
	h-70.4000244c-3.5299683,0-6.3999634,2.8699951-6.3999634,6.4000244c0,3.5299683,2.8699951,6.3999634,6.3999634,6.3999634
	h65.4700317L175.3499756,160h-56.6999512l-30.7200317-51.2000122h20.6699829c3.5300293,0,6.4000244-2.8699951,6.4000244-6.3999634
	C115,98.8699951,112.1300049,96,108.5999756,96H83V70.4000244h128V96z M243,57.5999756H51V12.7999878h12.7999878v12.7999878
	C63.7999878,29.1300049,66.6599731,32,70.2000122,32c3.5299683,0,6.3999634-2.8699951,6.3999634-6.4000244V12.7999878h12.8000488
	v12.7999878C89.4000244,29.1300049,92.2700195,32,95.7999878,32c3.5400391,0,6.4000244-2.8699951,6.4000244-6.4000244V12.7999878
	H115v12.7999878C115,29.1300049,117.8699951,32,121.4000244,32c3.5299683,0,6.3999634-2.8699951,6.3999634-6.4000244V12.7999878
	h12.7999878v12.7999878C140.5999756,29.1300049,143.460022,32,147,32c3.5300293,0,6.4000244-2.8699951,6.4000244-6.4000244
	V12.7999878h12.7999878v12.7999878c0,3.5300293,2.8699951,6.4000244,6.3999634,6.4000244
	C176.1300049,32,179,29.1300049,179,25.5999756V12.7999878h12.7999878v12.7999878
	c0,3.5300293,2.8599854,6.4000244,6.4000244,6.4000244c3.5299683,0,6.3999634-2.8699951,6.3999634-6.4000244V12.7999878h12.8000488
	v12.7999878c0,3.5300293,2.8699951,6.4000244,6.3999634,6.4000244c3.5400391,0,6.4000244-2.8699951,6.4000244-6.4000244V12.7999878
	H243V57.5999756z"/>
<rect style="fill:none;" width="294" height="384.0000305"/>
<path d="M238.0700073,161.6640015c2.1759949-0.7189941,3.7969971-2.5429993,4.2579956-4.7850037
	c0.4649963-2.2420044-0.3049927-4.5589905-2.0159912-6.0820007c-1.7070007-1.5200043-4.1010437-2.0119934-6.2730103-1.2929993
	c-25.2150116,8.3200073-35.3910217,31.5509949-24.0619965,55.8079987c7.9999847,17.2149963,1.4720001,32-16.5120087,38.3989868
	c-3.2310181,1.1909943-4.9420166,4.7190094-3.8750153,7.9920197c1.0700073,3.2740173,4.5310059,5.1130066,7.8440094,4.1679993
	c11.5310059-2.9329834,21.0500183-11.0510254,25.7730103-21.9730072c4.7269897-10.9249878,4.1170044-23.42099-1.6480103-33.8359985
	C213.4960022,182.5939941,220.0899963,167.6170044,238.0700073,161.6640015L238.0700073,161.6640015z M238.0700073,161.6640015"/>
<path d="M286.1369934,98.8160095c1.625-0.5270081,2.9720154-1.6830139,3.7420044-3.2109985
	c0.7690125-1.5230103,0.8979797-3.2960205,0.3509827-4.9169922c-1.1209717-3.32901-4.7219849-5.1290283-8.0619812-4.0320129
	c-11.5159912,2.9419861-21.019989,11.0469971-25.7380066,21.9530029c-4.7229919,10.9069824-4.125,23.3829956,1.6090088,33.7889862
	c8.0660095,17.2819977,1.4729919,32.3209991-16.5119934,38.4029999c-3.355011,1.1130066-5.1750183,4.7380066-4.0620117,8.0940094
	c1.1130066,3.3589935,4.7379761,5.1790009,8.0939636,4.0659943c25.2180176-8.3199921,35.394043-31.5549927,24.06604-55.7460022
	C261.625,119.7419739,268.1519775,104.769989,286.1369934,98.8160095L286.1369934,98.8160095z M286.1369934,98.8160095"/>
<path style="fill:#D0876C;" d="M287.7999878,311.039978l-134.3999634-52.9899902v-27.4599609h-12.8000488v27.6499634
	L6.2000122,311.1099854C2.5200195,312.5200195,0.0999756,316.0599976,0.0999756,320s2.4200439,7.4799805,6.1000366,8.8900146
	C148.5300293,386.1099854,139.8900146,384,147,384c7.0999756,0-1.4699707,2.1099854,140.7999878-55.1099854
	c3.6600342-1.4400024,6.0700073-4.9800415,6.0700073-8.9200439
	C293.8699951,316.0300293,291.460022,312.4899902,287.7999878,311.039978z M18.039978,320l122.5599976-48.1900024v44.0900269
	l-62.0099487,28.6099854L18.039978,320z M151.7299805,370.2999878c-3.039978,1.2200317-6.4299927,1.2200317-9.4599609,0
	l-47.4299927-19.1900024L149.6900024,325.5c2.1599731-1,3.5999756-3.1199951,3.710022-5.5v-48.1900024L275.960022,320
	L151.7299805,370.2999878z"/>
</svg>
