<?xml version="1.0" encoding="utf-8"?>
<!-- Generator: Adobe Illustrator 19.2.1, SVG Export Plug-In . SVG Version: 6.00 Build 0)  -->
<svg version="1.1" id="Слой_1" xmlns="http://www.w3.org/2000/svg" xmlns:xlink="http://www.w3.org/1999/xlink" x="0px" y="0px"
	 viewBox="0 0 255.7299805 384" style="enable-background:new 0 0 255.7299805 384;" xml:space="preserve">
<path d="M127.8699951,0C57.3599854,0,0,57.3599854,0,127.8699951c0,2.0700073,0.5700073,3.7700195,2.1300049,5.1600342
	l109,97.5299683h33.5700073c12.3300171-10.9799805,35.0100098-31.4199829,77.5299683-69.460022
	c2.6300049-2.3499756,2.8600464-6.3899536,0.5-9.0299683c-2.3499756-2.6199951-6.3899536-2.8500366-9.0299683-0.5
	l-79.4400024,71.0800171v-68.8099976c0-3.5300293-2.8599854-6.3900146-6.3900146-6.3900146
	c-3.5299683,0-6.4000244,2.8599854-6.4000244,6.3900146v68.8099976l-98.789978-88.3900146h226.6600342
	c3.5299683,0,6.3899536-2.8599854,6.3899536-6.3900146C255.7299805,57.3599854,198.3800049,0,127.8699951,0z M12.960022,121.4699707
	C16.289978,60.9799805,66.5599976,12.789978,127.8699951,12.789978s111.5700073,48.1900024,114.9000244,108.6799927H12.960022z"/>
<path style="fill:#CA846B;" d="M228.5599976,256.1300049v102.2999878C228.5599976,372.5300293,217.0900269,384,202.9899902,384
	H52.75c-14.1099854,0-25.5800171-11.4699707-25.5800171-25.5700073V256.1300049
	c0-14.0999756,11.4700317-25.5700073,25.5800171-25.5700073h91.9500122
	c-15.7600098,14.0300293-14.5800171,12.6099854-16.2200317,12.7600098c-0.5100098,0.039978,1.2600098,0.0299683-28.789978,0.0299683
	v35.1600342h56.9500122v-15.9799805c0-3.5300293,2.8599854-6.4000244,6.3900146-6.4000244
	c3.5299683,0,6.3999634,2.8699951,6.3999634,6.4000244v22.3699951c0,3.5299683-2.8699951,6.3999634-6.3999634,6.3999634H93.289978
	c-3.5299683,0-6.3899536-2.8699951-6.3899536-6.3999634v-41.5500488H52.75c-7.0499878,0-12.789978,5.7300415-12.789978,12.7800293
	v102.2999878c0,7.0499878,5.7399902,12.7800293,12.789978,12.7800293h150.2399902
	c7.0499878,0,12.7900391-5.7300415,12.7900391-12.7800293V256.1300049c0-7.0499878-5.7400513-12.7800293-12.7900391-12.7800293
	h-31.9699707c-3.5300293,0-6.3900146-2.8699951-6.3900146-6.3999634c0-3.5300293,2.8599854-6.3900146,6.3900146-6.3900146
	h31.9699707C217.0900269,230.5599976,228.5599976,242.0300293,228.5599976,256.1300049z"/>
</svg>
