<?xml version="1.0" encoding="utf-8"?>
<!-- Generator: Adobe Illustrator 19.2.1, SVG Export Plug-In . SVG Version: 6.00 Build 0)  -->
<svg version="1.1" id="Слой_1" xmlns="http://www.w3.org/2000/svg" xmlns:xlink="http://www.w3.org/1999/xlink" x="0px" y="0px"
	 viewBox="0 0 409.6019897 409.6020203" style="enable-background:new 0 0 409.6019897 409.6020203;" xml:space="preserve">
<g>
	<path style="fill:#CA846B;" d="M92.8009949,329.6020203c-13.2350006,0-24,10.7650146-24,24c0,13.2340088,10.7649994,24,24,24
		c13.2339935,0,24-10.7659912,24-24C116.8009949,340.3670349,106.0349884,329.6020203,92.8009949,329.6020203
		L92.8009949,329.6020203z M92.8009949,361.6020203c-4.4140015,0-8-3.5899963-8-8c0-4.4150085,3.5859985-8,8-8
		c4.4099884,0,8,3.5849915,8,8C100.8009949,358.0120239,97.2109833,361.6020203,92.8009949,361.6020203L92.8009949,361.6020203z
		 M92.8009949,361.6020203"/>
	<path style="fill:#3E3E3E;" d="M385.6019897,329.6020203h-12.8010254V156.8010254c0-4.4180298-3.5819702-8-8-8h-40V40
		c0-4.4179993-3.5819702-7.9999695-7.9999695-7.9999695H156.8009796c-4.4179993,0-7.9999847,3.5819702-7.9999847,7.9999695
		v289.6020203h-5.3990021c-5.5350037-11.7109985-14.8900146-21.0669861-26.6009979-26.6060181V24.0000305
		c0-13.2340393-10.7660065-24.0000305-24-24.0000305H24C10.7659607,0,0,10.7659912,0,24.0000305c0,13.2340088,10.7659607,24,24,24
		h44.8009949v254.9959717c-19.3520203,9.1880188-32,28.8520203-32,50.6060181c0,30.875,25.1209869,56,56,56
		c21.7539978,0,41.4139862-12.6530151,50.6009979-32h242.1999969c13.2340088,0,24-10.7659912,24-24
		C409.6019897,340.3670349,398.8359985,329.6020203,385.6019897,329.6020203L385.6019897,329.6020203z M356.8009949,329.6020203
		H164.8009796V164.8010254h56v84.8009949c0,3.0310059,1.7110138,5.7960052,4.4220123,7.1560059
		c2.7069855,1.355011,5.9529877,1.0619812,8.3789978-0.7580261l27.1990051-20.3979797L288,256
		c2.4299622,1.8200073,5.6719971,2.1090088,8.3789978,0.7580261c2.7070007-1.3600006,4.4219666-4.125,4.4219666-7.1560059
		v-84.8009949h56.0000305V329.6020203z M236.8009949,164.8010254h48v68.8009949l-19.1990051-14.4029999
		c-1.4220276-1.0659943-3.1140137-1.5970001-4.8009949-1.5970001c-1.6880188,0-3.3790283,0.5310059-4.8010101,1.5970001
		l-19.1989899,14.4029999V164.8010254z M220.8009796,48.0000305h32v45.8519897l-11.562973-7.7069702
		c-1.3430176-0.8990173-2.8900146-1.3440247-4.4370117-1.3440247s-3.0940094,0.4450073-4.4380035,1.3440247l-11.5620117,7.7069702
		V48.0000305z M204.8009949,48.0000305v60.8009644c0,2.9490356,1.6249847,5.6600037,4.2219849,7.0510254
		c2.6060181,1.3940125,5.7620239,1.2380066,8.2150116-0.3950195l19.5630035-13.0429993l19.5620117,13.0429993
		c2.4569702,1.6369934,5.6139832,1.7850037,8.210968,0.3950195c2.6020203-1.3910217,4.2270203-4.1019897,4.2270203-7.0510254
		V48.0000305h40v100.8009949H164.8009796V48.0000305H204.8009949z M24,32.0000305c-4.414032,0-8.0000305-3.5859985-8.0000305-8
		C15.9999695,19.5859985,19.585968,16,24,16h68.8009949c4.4099884,0,8,3.5859985,8,8.0000305v274.1799927
		c-2.6370087-0.3789978-5.3090057-0.5780029-8-0.5780029c-2.6959991,0-5.3630066,0.1990051-8,0.5780029V40
		c0-4.4179993-3.582016-7.9999695-8.0000153-7.9999695H24z M92.8009949,393.6020203
		c-22.0590057,0-40.0000153-17.9460144-40.0000153-40c0-21.8210144,17.6480103-40,40.0000153-40
		c22.3439941,0,39.9999847,18.1990051,39.9999847,40C132.8009796,375.9490051,114.6169891,393.6020203,92.8009949,393.6020203
		L92.8009949,393.6020203z M385.6019897,361.6020203H148.2229919c0.3789978-2.6409912,0.5780029-5.309021,0.5780029-8
		c0-2.6960144-0.2030029-5.3640137-0.5780029-8h237.3789978c4.4100037,0,7.9999695,3.5849915,7.9999695,8
		C393.6019592,358.0120239,390.0119934,361.6020203,385.6019897,361.6020203L385.6019897,361.6020203z M385.6019897,361.6020203"/>
	<path style="fill:#CA846B;" d="M332.8009949,313.6020203c4.4179993,0,8-3.5820007,8-8v-16c0-4.4219971-3.5820007-8-8-8
		s-8.0000305,3.5780029-8.0000305,8v16C324.8009644,310.0200195,328.3829956,313.6020203,332.8009949,313.6020203
		L332.8009949,313.6020203z M332.8009949,313.6020203"/>
	<path style="fill:#CA846B;" d="M332.8009949,249.6020203c4.4139709,0,8,3.5820007,8,8c0,4.4139709-3.5860291,7.9999695-8,7.9999695
		c-4.4179993,0-8.0000305-3.5859985-8.0000305-7.9999695C324.8009644,253.184021,328.3829956,249.6020203,332.8009949,249.6020203
		L332.8009949,249.6020203z M332.8009949,249.6020203"/>
	<path style="fill:#CA846B;" d="M300.8009644,281.6020203c-4.4179993,0-7.9999695,3.5780029-7.9999695,8v16
		c0,4.4179993,3.5819702,8,7.9999695,8s8.0000305-3.5820007,8.0000305-8v-16
		C308.8009949,285.1800232,305.2189636,281.6020203,300.8009644,281.6020203L300.8009644,281.6020203z M300.8009644,281.6020203"/>
</g>
</svg>
