<?xml version="1.0" encoding="utf-8"?>
<!-- Generator: Adobe Illustrator 19.2.1, SVG Export Plug-In . SVG Version: 6.00 Build 0)  -->
<svg version="1.1" id="Слой_1" xmlns="http://www.w3.org/2000/svg" xmlns:xlink="http://www.w3.org/1999/xlink" x="0px" y="0px"
	 viewBox="0 0 43.960022 43.9200134" style="enable-background:new 0 0 43.960022 43.9200134;" xml:space="preserve">
<g>
	<path style="fill:#3E3E3E;" d="M36.8160095,20.4400024c0,0.4419861-0.3590088,0.8009949-0.8000183,0.8009949
		c-0.4420166,0-0.7969971-0.3590088-0.7969971-0.8009949c0-0.440979,0.3549805-0.7999878,0.7969971-0.7999878
		C36.4570007,19.6400146,36.8160095,19.9990234,36.8160095,20.4400024L36.8160095,20.4400024z M36.8160095,20.4400024"/>
	<path style="fill:#3E3E3E;" d="M8.0159912,20.4400024c0,0.4419861-0.3560181,0.8009949-0.7969971,0.8009949
		c-0.4460144,0-0.8009949-0.3590088-0.8009949-0.8009949c0-0.440979,0.3549805-0.7999878,0.8009949-0.7999878
		C7.6599731,19.6400146,8.0159912,19.9990234,8.0159912,20.4400024L8.0159912,20.4400024z M8.0159912,20.4400024"/>
	<path style="fill:#3E3E3E;" d="M10.4179993,22.8389893c0,0.4410095-0.3590088,0.8010254-0.8010254,0.8010254
		c-0.4410095,0-0.8009949-0.3600159-0.8009949-0.8010254c0-0.4419861,0.3599854-0.8009949,0.8009949-0.8009949
		C10.0589905,22.0379944,10.4179993,22.3970032,10.4179993,22.8389893L10.4179993,22.8389893z M10.4179993,22.8389893"/>
	<path style="fill:#3E3E3E;" d="M15.2189941,22.8389893c0,0.4410095-0.3600159,0.8010254-0.8010254,0.8010254
		c-0.440979,0-0.8009644-0.3600159-0.8009644-0.8010254c0-0.4419861,0.3599854-0.8009949,0.8009644-0.8009949
		C14.8589783,22.0379944,15.2189941,22.3970032,15.2189941,22.8389893L15.2189941,22.8389893z M15.2189941,22.8389893"/>
	<path style="fill:#3E3E3E;" d="M12.815979,25.2410278c0,0.440979-0.3589783,0.7969971-0.7999878,0.7969971
		c-0.4420166,0-0.7969971-0.3560181-0.7969971-0.7969971c0-0.4450378,0.3549805-0.8010254,0.7969971-0.8010254
		C12.4570007,24.4400024,12.815979,24.79599,12.815979,25.2410278L12.815979,25.2410278z M12.815979,25.2410278"/>
	<path style="fill:#3E3E3E;" d="M17.6170044,25.2410278c0,0.440979-0.3590088,0.7969971-0.8010254,0.7969971
		c-0.4410095,0-0.7999878-0.3560181-0.7999878-0.7969971c0-0.4450378,0.3589783-0.8010254,0.7999878-0.8010254
		C17.2579956,24.4400024,17.6170044,24.79599,17.6170044,25.2410278L17.6170044,25.2410278z M17.6170044,25.2410278"/>
	<path style="fill:#3E3E3E;" d="M20.0159912,27.6399841c0,0.4410095-0.3560181,0.8000183-0.7970276,0.8000183
		c-0.4459839,0-0.8009644-0.3590088-0.8009644-0.8000183c0-0.4419861,0.3549805-0.8009644,0.8009644-0.8009644
		C19.6599731,26.8390198,20.0159912,27.197998,20.0159912,27.6399841L20.0159912,27.6399841z M20.0159912,27.6399841"/>
	<path style="fill:#3E3E3E;" d="M24.8160095,27.6399841c0,0.4410095-0.3590088,0.8000183-0.8000183,0.8000183
		c-0.4420166,0-0.7969971-0.3590088-0.7969971-0.8000183c0-0.4419861,0.3549805-0.8009644,0.7969971-0.8009644
		C24.4570007,26.8390198,24.8160095,27.197998,24.8160095,27.6399841L24.8160095,27.6399841z M24.8160095,27.6399841"/>
	<path style="fill:#3E3E3E;" d="M27.2189941,25.2410278c0,0.440979-0.3600159,0.7969971-0.8010254,0.7969971
		c-0.440979,0-0.8009644-0.3560181-0.8009644-0.7969971c0-0.4450378,0.3599854-0.8010254,0.8009644-0.8010254
		C26.8589783,24.4400024,27.2189941,24.79599,27.2189941,25.2410278L27.2189941,25.2410278z M27.2189941,25.2410278"/>
	<path style="fill:#3E3E3E;" d="M22.4179993,30.0379944c0,0.4410095-0.3590088,0.8010254-0.8010254,0.8010254
		c-0.4410095,0-0.8009949-0.3600159-0.8009949-0.8010254s0.3599854-0.7969971,0.8009949-0.7969971
		C22.0589905,29.2409973,22.4179993,29.5969849,22.4179993,30.0379944L22.4179993,30.0379944z M22.4179993,30.0379944"/>
	<path style="fill:#3E3E3E;" d="M29.6170044,22.8389893c0,0.4410095-0.3590088,0.8010254-0.8010254,0.8010254
		c-0.4410095,0-0.8000183-0.3600159-0.8000183-0.8010254c0-0.4419861,0.3590088-0.8009949,0.8000183-0.8009949
		C29.2579956,22.0379944,29.6170044,22.3970032,29.6170044,22.8389893L29.6170044,22.8389893z M29.6170044,22.8389893"/>
	<path style="fill:#3E3E3E;" d="M34.4179993,22.8389893c0,0.4410095-0.3590088,0.8010254-0.8010254,0.8010254
		c-0.4410095,0-0.8009644-0.3600159-0.8009644-0.8010254c0-0.4419861,0.3599548-0.8009949,0.8009644-0.8009949
		C34.0589905,22.0379944,34.4179993,22.3970032,34.4179993,22.8389893L34.4179993,22.8389893z M34.4179993,22.8389893"/>
	<path style="fill:#3E3E3E;" d="M32.0159912,25.2410278c0,0.440979-0.3560181,0.7969971-0.7970276,0.7969971
		c-0.4459839,0-0.8009644-0.3560181-0.8009644-0.7969971c0-0.4450378,0.3549805-0.8010254,0.8009644-0.8010254
		C31.6599731,24.4400024,32.0159912,24.79599,32.0159912,25.2410278L32.0159912,25.2410278z M32.0159912,25.2410278"/>
	<path style="fill:#3E3E3E;" d="M43.960022,12.7999878L21.9799805,0.3200073L0,12.7999878l7.7299805,4.4100342L0,21.5999756
		l7.2199707,4.1300049l0.5100098,0.2900391l1.6100464,0.9199829l12.6399536,7.2199707l12.6400146-7.2199707l1.6199951-0.9199829
		l0.0599976-0.0400391l2.6900024-1.539978l4.9700317-2.8400269l-7.7200317-4.3899536L43.960022,12.7999878z M3.2299805,12.8099976
		l18.75-10.6500244l18.75,10.6500244l-6.1099854,3.4899902l-12.6400146,7.2200317L3.2299805,12.8099976z M40.7299805,21.5999756
		l-1.5899658,0.9100342c-0.1199951-0.2800293-0.4000244-0.4700317-0.7200317-0.4700317
		c-0.4400024,0-0.7999878,0.3600464-0.7999878,0.8000488c0,0.1699829,0.0599976,0.3199463,0.1600342,0.4499512l-3.1600342,1.8099976
		l-5.1099854,2.9100342c0.0599976-0.1099854,0.1099854-0.2299805,0.1099854-0.3699951
		c0-0.4400024-0.3599854-0.7999878-0.7999878-0.7999878c-0.4500122,0-0.7999878,0.3599854-0.7999878,0.7999878
		c0,0.4299927,0.3399658,0.7699585,0.7600098,0.789978l-1.8100586,1.0300293
		c-0.1399536-0.1300049-0.3399658-0.2200317-0.5499878-0.2200317c-0.4400024,0-0.7999878,0.3599854-0.7999878,0.7999878
		c0,0.0599976,0.0200195,0.1199951,0.039978,0.1799927l-3.6799927,2.1000366l-4.4099731-2.5200195
		c-0.1099854-0.3200073-0.4000244-0.5599976-0.75-0.5599976c-0.0599976,0-0.1099854,0.0200195-0.1699829,0.0300293l-1.7600098-1
		c0.2000122-0.1500244,0.3299561-0.3699951,0.3299561-0.6300049c0-0.4400024-0.3599854-0.7999878-0.7999878-0.7999878
		c-0.4099731,0-0.7399902,0.3099976-0.7799683,0.7099609L5.5900269,22.960022
		c0.0099487-0.0400391,0.0299683-0.0800171,0.0299683-0.1199951c0-0.4400024-0.3599854-0.8000488-0.7999878-0.8000488
		c-0.2000122,0-0.3599854,0.0800171-0.5,0.1900024l-1.0900269-0.6199951l5.6700439-3.2199707
		c0.1300049,0.2600098,0.3999634,0.4500122,0.7199707,0.4500122c0.210022,0,0.4100342-0.0900269,0.5499878-0.2300415
		l1.8099976,1.0400391c-0.4299927,0.0199585-0.7600098,0.3599854-0.7600098,0.789978
		c0,0.4400024,0.3500366,0.7999878,0.8000488,0.7999878c0.4400024,0,0.7999878-0.3599854,0.7999878-0.7999878
		c0-0.1400146-0.0499878-0.2600098-0.1099854-0.3699951l8.2699585,4.710022
		c-0.0999756,0.1399536-0.1599731,0.289978-0.1599731,0.4599609c0,0.4400024,0.3599854,0.7999878,0.7999878,0.7999878
		s0.7999878-0.3599854,0.7999878-0.7999878c0-0.039978-0.0199585-0.0800171-0.0299683-0.1199951l8.039978-4.5899658
		c0.0499878,0.3999634,0.3800049,0.7099609,0.789978,0.7099609c0.4400024,0,0.8000488-0.3599854,0.8000488-0.7999878
		c0-0.2600098-0.1300049-0.4799805-0.3300171-0.6300049l1.7600098-1c0.0599976,0.0100098,0.1099854,0.0300293,0.1699829,0.0300293
		c0.3499756,0,0.6400146-0.2400513,0.75-0.5599976l0.25-0.1400146L40.7299805,21.5999756z"/>
	<rect style="fill:none;" width="43.9199829" height="43.9200134"/>
	<polygon style="fill:#CA846B;" points="43.960022,30.4000244 21.9799805,42.960022 0,30.4000244 7.7299805,26.0200195 
		9.3400269,26.9400024 3.2299805,30.4000244 21.9799805,41.1199951 40.7299805,30.4000244 34.6199951,26.9400024 
		36.2399902,26.0200195 	"/>
</g>
</svg>
