<?xml version="1.0" encoding="utf-8"?>
<!-- Generator: Adobe Illustrator 19.2.1, SVG Export Plug-In . SVG Version: 6.00 Build 0)  -->
<svg version="1.1" id="Capa_1" xmlns="http://www.w3.org/2000/svg" xmlns:xlink="http://www.w3.org/1999/xlink" x="0px" y="0px"
	 viewBox="-49 141 512 512" style="enable-background:new -49 141 512 512;" xml:space="preserve">
<path style="fill:#3F3F3F;" d="M388.0190125,215.980011C339.6669922,167.6289978,275.3800049,141,207,141
	c-68.3809967,0-132.6690063,26.6289978-181.019989,74.980011C-22.3719997,264.3320007-49,328.6199951-49,397
	s26.6280003,132.6669922,74.9800034,181.0189819S138.6190033,653,207,653
	c68.3800049,0,132.6669922-26.6290283,181.0189819-74.9810181S463,465.3800049,463,397
	S436.3710022,264.3330078,388.0190125,215.980011z M207,623C82.3829956,623-19,521.6170044-19,397S82.3829956,171,207,171
	s226,101.3829956,226,226S331.6170044,623,207,623z"/>
<path style="fill:#D0876C;" d="M308.0929871,314.8599854L175.6340027,447.3190002l-69.7269897-69.7269897
	c-5.8569946-5.8569946-15.3549957-5.8569946-21.2129974,0s-5.8580017,15.355011,0,21.2130127l80.3329926,80.3330078
	c2.9290009,2.9289856,6.7680054,4.3930054,10.6060028,4.3930054s7.6779938-1.4649963,10.6060028-4.3930054l143.065979-143.0660095
	c5.8580017-5.8569946,5.8580017-15.3549805,0-21.2129822C323.447998,309.0029907,313.9500122,309.0029907,308.0929871,314.8599854z"
	/>
</svg>
