<?xml version="1.0" encoding="utf-8"?>
<!-- Generator: Adobe Illustrator 19.2.1, SVG Export Plug-In . SVG Version: 6.00 Build 0)  -->
<svg version="1.1" id="Слой_1" xmlns="http://www.w3.org/2000/svg" xmlns:xlink="http://www.w3.org/1999/xlink" x="0px" y="0px"
	 viewBox="0 0 396.0013428 295.0004578" style="enable-background:new 0 0 396.0013428 295.0004578;" xml:space="preserve">
<g>
	<path style="fill:#CA846B;" d="M146.8023682,65.1564865c-45.6559906,0-82.8009949,37.1450043-82.8009949,82.8010178
		s37.1450043,82.8009949,82.8009949,82.8009949s82.8010101-37.1450195,82.8010101-82.8009949
		S192.458374,65.1564865,146.8023682,65.1564865L146.8023682,65.1564865z M146.8023682,218.7584991
		c-39.0390015,0-70.8009949-31.7619934-70.8009949-70.8009949s31.7619934-70.8010178,70.8009949-70.8010178
		s70.8010101,31.7620087,70.8010101,70.8010178S185.8413849,218.7584991,146.8023682,218.7584991L146.8023682,218.7584991z
		 M146.8023682,218.7584991"/>
	<path style="fill:#3E3E3E;" d="M390.0013428,225.1565094c-3.3120117,0-5.9999695,2.6879883-5.9999695,6v32.397995h-90.3980408
		V151.1334839c0-18.9219818-3.4809875-37.3719864-10.1099548-54.5819931l5.7890015-5.7899933
		c5.8869629-5.8860016,7.1759644-15.1360016,3.1409912-22.5c-15.2770081-27.8550072-38.0739899-50.6520195-65.9299774-65.9250031
		c-7.3590088-4.039032-16.6090088-2.7460022-22.4960022,3.1400146l-5.3240204,5.3209839
		c-15.6640015-6.0670166-32.390976-9.3639832-49.5939941-9.6250305
		c-40.0819855-0.6179504-77.7580109,14.6560364-106.0819855,42.980011
		C14.6733532,72.4764938-0.5886401,110.1484909,0.017378,150.2344818
		c0.5890198,38.8750305,16.6560059,75.309021,45.2419739,102.5900269
		c28.3240204,27.0389557,65.5150299,41.9339752,104.7220154,41.9339752h124.8209991
		c10.3670044,0,18.8009644-8.4339905,18.8009644-18.8009949v-0.4029846h96.3980103c3.3120117,0,6-2.6830139,6-6v-38.397995
		C396.0013428,227.8444977,393.3133545,225.1565094,390.0013428,225.1565094L390.0013428,225.1565094z M212.481369,13.9614973
		c2.1370239-2.1369934,5.5280151-2.5940247,8.2430115-1.1059875c25.8470001,14.1759653,47.003952,35.3279877,61.1749725,61.1759758
		c1.4889832,2.7150116,1.0360107,6.105011-1.1009827,8.2420044l-2.4450073,2.4459991
		c-6.7820129-13.9179993-15.7350159-26.8399925-26.6799774-38.3089867
		c-12.1290131-12.7030334-26.0630188-22.9259949-41.2150116-30.4259949L212.481369,13.9614973z M281.6033325,275.957489
		c0,3.75-3.0509644,6.8009949-6.8009644,6.8009949H149.981369c-74.9639893,0-136.8549805-59.5319672-137.9639893-132.7069855
		c-0.5589905-36.8090134,13.4570007-71.4030075,39.4640045-97.4149933
		c25.5119934-25.5070343,59.2819824-39.4800262,95.2969971-39.4800262c0.7069855,0,1.4139862,0.0040283,2.1179962,0.0159912
		c73.1750183,1.1090088,132.706955,63.0000267,132.706955,137.9610138V275.957489z M281.6033325,275.957489"/>
	<rect x="0.0013868" y="0.0004683" style="fill:none;" width="395.7600098" height="295"/>
	<path style="fill:#3E3E3E;" d="M183.2083893,44.9694786c4.6640015,1.6520233,9.2579803,3.6400299,13.6600037,5.9140167
		c0.8789978,0.4530029,1.8209839,0.6710052,2.7499847,0.6710052c2.1719971,0,4.2660065-1.1829987,5.332016-3.2459869
		c1.5239868-2.9450073,0.3710022-6.5620117-2.5740204-8.0859985c-4.8829956-2.5270386-9.9880066-4.7340088-15.1679993-6.56604
		c-3.125-1.1049805-6.5509796,0.5350342-7.6560059,3.6560059C178.4463806,40.4374962,180.083374,43.8674889,183.2083893,44.9694786
		L183.2083893,44.9694786z M183.2083893,44.9694786"/>
	<path style="fill:#3E3E3E;" d="M220.8683929,52.0154991c-2.6210022-2.0270081-6.3900146-1.5460052-8.4140015,1.0749969
		c-2.0270081,2.625-1.5470123,6.3899994,1.0739746,8.4179993c13.0470123,10.0859947,23.809021,23.1950035,31.1210022,37.9139977
		c1.0510101,2.1089935,3.1720276,3.3320007,5.3789978,3.3320007c0.8990021,0,1.809021-0.2030029,2.6680298-0.6289978
		c2.9649963-1.4730072,4.1759491-5.0740051,2.6999664-8.0429993
		C247.2783813,77.7504959,235.3413696,63.2035027,220.8683929,52.0154991L220.8683929,52.0154991z M220.8683929,52.0154991"/>
	<path style="fill:#CA846B;" d="M188.1573944,117.1764908c-2.8710175,1.6600037-3.8510284,5.3280029-2.1910095,8.1990051
		c3.9489899,6.8280106,6.0350037,14.640007,6.0350037,22.5820084c0,24.9219971-20.2770081,45.1990051-45.1990204,45.1990051
		c-24.9259796,0-45.1989899-20.2770081-45.1989899-45.1990051s20.2730103-45.1990128,45.1989899-45.1990128
		c10.3899994,0,20.1560059,3.4250031,28.2460175,9.9100037c2.5859833,2.0699921,6.3590088,1.6559906,8.4329834-0.9300079
		c2.0709991-2.5859985,1.6570129-6.3629913-0.9290009-8.4339905c-10.0939941-8.0890045-22.7890015-12.5460052-35.75-12.5460052
		c-31.5390015,0-57.1989899,25.6600037-57.1989899,57.1990128s25.6599884,57.1990051,57.1989899,57.1990051
		s57.1990051-25.6600037,57.1990051-57.1990051c0-10.0469971-2.6450043-19.9340057-7.647995-28.5900192
		C194.6963959,116.4964981,191.0243683,115.5194931,188.1573944,117.1764908L188.1573944,117.1764908z M188.1573944,117.1764908"/>
</g>
</svg>
