<?xml version="1.0" encoding="utf-8"?>
<!-- Generator: Adobe Illustrator 19.2.1, SVG Export Plug-In . SVG Version: 6.00 Build 0)  -->
<svg version="1.1" id="Capa_1" xmlns="http://www.w3.org/2000/svg" xmlns:xlink="http://www.w3.org/1999/xlink" x="0px" y="0px"
	 viewBox="27 141 360 512" style="enable-background:new 27 141 360 512;" xml:space="preserve">
<g>
	<path style="fill:#3F3F3F;" d="M207,141c-99.2519989,0-180,80.7480011-180,180
		c0,33.5339966,9.2890015,66.2600098,26.8690033,94.6520081l142.8849945,230.2569885
		C199.4909973,650.3200073,204.3130035,653,209.4989929,653c0.0400085,0,0.07901,0,0.118988,0
		c5.2309875-0.0410156,10.0629883-2.8039551,12.75-7.2919922l139.2430115-232.4880066
		C378.2210083,385.4279785,387,353.5390015,387,321C387,221.7480011,306.2520142,141,207,141z M335.8659973,397.8179932
		l-126.5939941,211.368042L79.3670044,399.8460083C64.7340012,376.2139893,56.8000031,348.9500122,56.8000031,321
		c0-82.7099915,67.4900055-150.1999969,150.1999969-150.1999969S357.1000061,238.2900085,357.1000061,321
		C357.1000061,348.1210022,349.6889954,374.6879883,335.8659973,397.8179932z"/>
	<path style="fill:#D0876C;" d="M207,231c-49.6260071,0-90,40.3739929-90,90c0,49.3089905,39.7169952,90,90,90
		c50.9030151,0,90-41.2330017,90-90C297,271.3739929,256.6260071,231,207,231z M207,381.2000122
		c-33.2570038,0-60.1999969-27.03302-60.1999969-60.2000122c0-33.0839844,27.1159973-60.2000122,60.1999969-60.2000122
		S267.1000061,287.9160156,267.1000061,321C267.1000061,353.6829834,240.7839966,381.2000122,207,381.2000122z"/>
</g>
</svg>
