<?xml version="1.0" encoding="utf-8"?>
<!-- Generator: Adobe Illustrator 19.2.1, SVG Export Plug-In . SVG Version: 6.00 Build 0)  -->
<svg version="1.1" id="Capa_1" xmlns="http://www.w3.org/2000/svg" xmlns:xlink="http://www.w3.org/1999/xlink" x="0px" y="0px"
	 viewBox="20.5200195 210.519989 372.9599915 372.9599915"
	 style="enable-background:new 20.5200195 210.519989 372.9599915 372.9599915;" xml:space="preserve">
<g>
	<path style="fill:#3F3F3F;" d="M207,210.519989c-102.9900513,0-186.4799805,83.4899292-186.4799805,186.480011
		S104.009964,583.4799805,207,583.4799805S393.480011,499.9900513,393.480011,397
		C393.3477783,294.0647583,309.9352417,210.6522064,207,210.519989z M344.3599854,405h32.7999878
		C372.9685669,492.7501831,302.7522278,562.9318237,215,567.0799561v-32.7999878c0-4.4182739-3.5817261-8-8-8s-8,3.5817261-8,8
		v32.7999878C111.2789764,562.8919067,41.1080551,492.7210388,36.9199982,405h32.8000031c4.4182816,0,8-3.5817261,8-8
		s-3.5817184-8-8-8H36.9199982C41.1080475,301.2789612,111.2789612,231.1080322,199,226.9199829v32.8000183
		c0,4.4182739,3.5817261,8,8,8s8-3.5817261,8-8v-32.8000183C302.7210388,231.1080475,372.8919373,301.2789612,377.0799866,389
		h-32.7999878c-4.4182739,0-8,3.5817261-8,8s3.5817261,8,8,8H344.3599854z"/>
	<path style="fill:#D0876C;" d="M215,393.7200012V313c0-4.4182739-3.5817261-8-8-8s-8,3.5817261-8,8v84
		c0.0088348,2.0987244,0.8420563,4.1099243,2.3200073,5.6000061l78.6400146,80
		c3.092804,3.1590576,8.1609497,3.2127991,11.3200073,0.1199951s3.2127991-8.1609497,0.1199951-11.3200073l0,0L215,393.7200012z"/>
</g>
</svg>
