<?xml version="1.0" encoding="utf-8"?>
<!-- Generator: Adobe Illustrator 19.2.1, SVG Export Plug-In . SVG Version: 6.00 Build 0)  -->
<svg version="1.1" id="Layer_1" xmlns="http://www.w3.org/2000/svg" xmlns:xlink="http://www.w3.org/1999/xlink" x="0px" y="0px"
	 viewBox="-11.3188562 141.0000153 436.6377258 512.0010376"
	 style="enable-background:new -11.3188562 141.0000153 436.6377258 512.0010376;" xml:space="preserve">
<g>
	<path style="fill:#3F3F3F;" d="M417.3942871,229.4112396c-70.4446411-19.302063-141.3039856-49.3569183-204.9171906-86.9152679
		c-3.3785553-1.9946136-7.5724182-1.9946136-10.9499054,0c-65.4473419,38.6375122-132.47789,67.0660858-204.9225311,86.9152679
		c-4.6795821,1.2805634-7.9235139,5.5347137-7.9235139,10.3876953v110.0460663
		c0,113.3234253,52.2788277,188.3345642,96.1365662,231.3059387
		c47.2158279,46.2648315,102.2162552,71.8500977,122.1849899,71.8500977c19.966568,0,74.9669952-25.5853271,122.1828156-71.8501587
		c43.8566589-42.9702759,96.1333618-117.9825134,96.1333618-231.3059082V239.7978668
		C425.3188782,234.9459534,422.0749512,230.691803,417.3942871,229.4112396z M403.7788086,349.8439331
		c0,105.8425598-48.7613525,175.8380737-89.6691589,215.9197998
		c-46.4306946,45.494812-96.0741272,65.6950684-107.1069489,65.6950684c-11.0328369,0-60.6794586-20.2003174-107.1112442-65.6950684
		c-40.9067459-40.0828247-89.6702423-110.077301-89.6702423-215.9197998V247.974472
		c69.2782516-19.6703949,133.7961731-47.1210632,196.7836456-83.7241058
		c61.4139709,35.6315918,129.151062,64.4478912,196.7739563,83.7198029V349.8439331z"/>
	<path style="fill:#3F3F3F;" d="M111.5371017,246.7693024c-2.1798553-5.5347137-8.4329376-8.2541504-13.9687424-6.0732117
		c-19.2395859,7.5810242-38.9875221,14.5589294-58.6945381,20.740921c-4.4911041,1.4098206-7.5465698,5.570282-7.5465698,10.2756958
		v41.5906677c0,5.9482727,4.8228188,10.7700195,10.7700348,10.7700195s10.7700386-4.8217468,10.7700386-10.7700195v-33.7199097
		c17.6790161-5.7199707,35.3386383-12.0473633,52.5976257-18.8475647
		C110.9996643,258.5570984,113.7180252,252.3040314,111.5371017,246.7693024z"/>
	<path style="fill:#3F3F3F;" d="M131.996933,248.8123779c1.4453278,0,2.9122162-0.2907867,4.3187714-0.9046783l0.1981812-0.0861664
		c5.4485626-2.3877106,7.9030457-8.7312622,5.5153351-14.1776733c-2.3898621-5.4485626-8.7689667-7.9138184-14.2121353-5.5282593
		l-0.1744766,0.0753937c-5.4517899,2.3812408-7.9138336,8.7194214-5.5325623,14.1690521
		C123.8763351,246.4052887,127.8418503,248.8123779,131.996933,248.8123779z"/>
	<path style="fill:#3F3F3F;" d="M335.3211975,488.2830505c-4.9768372-3.252533-11.6510315-1.8535156-14.9078979,3.1254883
		c-8.8745117,13.584259-19.2869568,26.5923157-30.9509277,38.6590271
		c-9.5917969,9.9224243-19.9859619,19.1696167-30.8927612,27.4851074c-4.729126,3.605835-5.6391907,10.3640137-2.0344849,15.0952759
		c2.120636,2.7786865,5.3279419,4.2412109,8.5718994,4.2412109c2.2778625,0,4.5729675-0.7194214,6.523407-2.2067871
		c11.7651978-8.9714355,22.9746399-18.944458,33.3171082-29.642334
		c12.6106262-13.0435791,23.8815002-27.1243896,33.499115-41.8491516
		C341.7013855,498.2098083,340.3002014,491.5355835,335.3211975,488.2830505z"/>
	<path style="fill:#3F3F3F;" d="M233.557312,574.4433594l-0.6182098,0.3640137
		c-5.1469879,2.9811401-6.9057465,9.5692139-3.9256744,14.7161865c1.9967804,3.449646,5.6122742,5.3764038,9.3311615,5.3764038
		c1.829834,0,3.6876831-0.4674072,5.385025-1.4517822l0.7129669-0.4189453
		c5.1329803-3.0059204,6.8572845-9.6026001,3.8513489-14.7355957
		C245.2858582,573.1606445,238.6870728,571.4395752,233.557312,574.4433594z"/>
	<path style="fill:#D0876C;" d="M133.5887451,375.0188904c-6.6128082-6.6138916-15.4076157-10.2541504-24.7624741-10.2541504
		s-18.1496735,3.6413574-24.7657013,10.2541504c-13.6531754,13.6564331-13.6531754,35.8760681,0,49.5314026l63.5959854,63.5938416
		c6.6138916,6.6117249,15.4087067,10.2530518,24.7635345,10.2530518c9.3548584,0,18.1496735-3.6413574,24.7646332-10.2552185
		l132.7622375-132.7622375c13.6520996-13.6585693,13.6520996-35.8760681-0.0021667-49.5270691
		c-6.6138611-6.6138916-15.4086914-10.2541504-24.7646179-10.2541504c-9.3548584,0-18.1496582,3.6413574-24.7645874,10.2541504
		L172.4190216,413.848114L133.5887451,375.0188904z M295.6465454,321.0847168
		c2.5449829-2.5449829,5.9321289-3.9461365,9.5336304-3.9461365c3.6036682,0,6.9876099,1.4011536,9.534729,3.9461365
		c5.2546997,5.2546997,5.2546997,13.8093262-0.0021973,19.0661926L181.9537354,472.9109802
		c-2.5449677,2.5449524-5.9321289,3.9461365-9.5336456,3.9461365c-3.6015015,0-6.9886627-1.4011841-9.5346985-3.9461365
		l-63.5938339-63.5916748c-5.2568512-5.2568665-5.2568512-13.8114929-0.0021515-19.0661926
		c2.5460358-2.5449829,5.9332123-3.9483032,9.5357971-3.9483032c3.6025772,0,6.9876022,1.4011841,9.5325546,3.9461365
		l46.4447021,46.4457703c2.020462,2.0194092,4.7592773,3.1535034,7.6154785,3.1535034
		c2.8562164,0,5.595047-1.1340942,7.6144257-3.1535034L295.6465454,321.0847168z"/>
</g>
</svg>
