<?xml version="1.0" encoding="utf-8"?>
<!-- Generator: Adobe Illustrator 19.2.1, SVG Export Plug-In . SVG Version: 6.00 Build 0)  -->
<svg version="1.1" id="Capa_1" xmlns="http://www.w3.org/2000/svg" xmlns:xlink="http://www.w3.org/1999/xlink" x="0px" y="0px"
	 viewBox="-49 141 383.9004517 342.1000061" style="enable-background:new -49 141 383.9004517 342.1000061;" xml:space="preserve">
<g>
	<path style="fill:#D78A6E;" d="M116.7000122,324.1000061h-17.5c-5.5,0-10,4.5-10,10s4.5,10,10,10h17.5c5.5,0,10-4.5,10-10
		S122.2000122,324.1000061,116.7000122,324.1000061z"/>
	<path style="fill:#D78A6E;" d="M46.6000061,324.1000061H29c-5.5,0-10,4.5-10,10s4.5,10,10,10h17.5c5.5,0,10-4.5,10-10
		S52.1000061,324.1000061,46.6000061,324.1000061z"/>
	<path style="fill:#D78A6E;" d="M186.2999878,324.1000061h-17.5c-5.5,0-10,4.5-10,10s4.5,10,10,10h17.5c5.5,0,10-4.5,10-10
		S191.8999939,324.1000061,186.2999878,324.1000061L186.2999878,324.1000061z"/>
	<g>
		<path style="fill:#FFFFFF;" d="M295.0999756,170.1000061H271V151c0-5.5-4.5-10-10-10s-10,4.5-10,10v19.1000061h-98V151
			c0-5.5-4.5-10-10-10s-10,4.5-10,10v19.1000061H34V151c0-5.5-4.5-10-10-10s-10,4.5-10,10v19.1000061H-9.1000061
			c-22,0-39.8999939,18.5-39.8999939,40.5v232.5c0,22.1000061,17.7999878,40,39.8999939,40l0,0H295
			c22.0999756,0,39.9000244-17.8999939,39.9000244-39.8999939l0,0V210.6000061
			C335,188.6000061,317.0999756,170.1000061,295.0999756,170.1000061z M315,443.1000061c0,11-8.7999878,19.8999939-19.7999878,20
			h-0.0999756H-9.1000061c-11,0-19.8999939-8.8999939-19.8999939-19.8999939v-0.1000061v-232.5
			c0-11.1000061,8.8999939-20.5,19.8999939-20.5H14v14.5c0,5.5,4.5,10,10,10s10-4.5,10-10v-14.5h99v14.5c0,5.5,4.5,10,10,10
			s10-4.5,10-10v-14.5h98v14.5c0,5.5,4.5,10,10,10s10-4.5,10-10v-14.5h24.0999756c11.0999756,0,19.9000244,9.5,19.9000244,20.5
			V443.1000061z"/>
		<path style="fill:#FFFFFF;" d="M116.7000122,255.1000061h-17.5c-5.5,0-10,4.5-10,10s4.5,10,10,10h17.5c5.5,0,10-4.5,10-10
			S122.2000122,255.1000061,116.7000122,255.1000061z"/>
		<path style="fill:#FFFFFF;" d="M186.2999878,255.1000061h-17.5c-5.5,0-10,4.5-10,10s4.5,10,10,10h17.5c5.5,0,10-4.5,10-10
			S191.8999939,255.1000061,186.2999878,255.1000061L186.2999878,255.1000061z"/>
		<path style="fill:#FFFFFF;" d="M256.5,255.1000061H239c-5.5,0-10,4.5-10,10s4.5,10,10,10h17.5c5.5,0,10-4.5,10-10
			S262,255.1000061,256.5,255.1000061L256.5,255.1000061z"/>
		<path style="fill:#FFFFFF;" d="M256.5,324.1000061H239c-5.5,0-10,4.5-10,10s4.5,10,10,10h17.5c5.5,0,10-4.5,10-10
			S262,324.1000061,256.5,324.1000061L256.5,324.1000061z"/>
		<path style="fill:#FFFFFF;" d="M116.7000122,392.1000061h-17.5c-5.5,0-10,4.5-10,10s4.5,10,10,10h17.5c5.5,0,10-4.5,10-10
			S122.2000122,392.1000061,116.7000122,392.1000061z"/>
		<path style="fill:#FFFFFF;" d="M46.6000061,392.1000061H29c-5.5,0-10,4.5-10,10s4.5,10,10,10h17.5c5.5,0,10-4.5,10-10
			S52.1000061,392.1000061,46.6000061,392.1000061z"/>
		<path style="fill:#FFFFFF;" d="M186.2999878,392.1000061h-17.5c-5.5,0-10,4.5-10,10s4.5,10,10,10h17.5c5.5,0,10-4.5,10-10
			S191.8999939,392.1000061,186.2999878,392.1000061L186.2999878,392.1000061z"/>
	</g>
</g>
</svg>
