<?xml version="1.0" encoding="utf-8"?>
<!-- Generator: Adobe Illustrator 19.2.1, SVG Export Plug-In . SVG Version: 6.00 Build 0)  -->
<svg version="1.1" id="Layer_1" xmlns="http://www.w3.org/2000/svg" xmlns:xlink="http://www.w3.org/1999/xlink" x="0px" y="0px"
	 viewBox="0 0 14 13.4104862" style="enable-background:new 0 0 14 13.4104862;" xml:space="preserve">
<path style="fill-rule:evenodd;clip-rule:evenodd;fill:#FFFFFF;" d="M7.4899902,13.2804813
	c0.1800537-0.0200195,0.3599854-0.0599365,0.5300293-0.0999756l3.7399902-0.9799805
	C13.0799561,11.8604374,14,10.6604862,14,9.3005009V3.000452c0-1.9599611-1.8599854-3.4000244-3.7600098-2.9000244
	l-2.7099609,0.710083c-0.3300781,0.0899658-0.6800537,0.0899658-1.0200195,0l-2.7399902-0.710083
	c-1.8900146-0.5-3.75,0.9300537-3.75,2.8900146L0,9.2904911c0,1.3699951,0.9200439,2.5699463,2.25,2.9100342L6,13.1805058
	c0.1700439,0.0400391,0.3299561,0.0799561,0.5,0.0999756c0.1500244,0.0799561,0.3199463,0.1300049,0.5,0.1300049
	S7.3499756,13.3604374,7.4899902,13.2804813z M2.0200195,3.000452c0-0.6599121,0.6199951-1.130005,1.25-0.9699707L6,2.7404423
	v8.3699951l-3.25-0.8399658C2.3100586,10.1504765,2,9.750452,2,9.3005009L2.0200195,3.000452z M8,11.1204472V2.750452
	c0.0100098,0,0.0200195,0,0.0300293,0L10.75,2.0304813C11.3800049,1.870447,12,2.3504276,12,3.000452v6.3000488
	c0,0.4499512-0.3100586,0.8499756-0.75,0.9699707L8,11.1204472z"/>
</svg>
