<?xml version="1.0" encoding="utf-8"?>
<!-- Generator: Adobe Illustrator 19.2.1, SVG Export Plug-In . SVG Version: 6.00 Build 0)  -->
<svg version="1.1" id="Layer_1" xmlns="http://www.w3.org/2000/svg" xmlns:xlink="http://www.w3.org/1999/xlink" x="0px" y="0px"
	 viewBox="0 0 8.0005188 10" style="enable-background:new 0 0 8.0005188 10;" xml:space="preserve">
<path style="fill-rule:evenodd;clip-rule:evenodd;fill:#FFFFFF;" d="M4.0002594,0c0.552002,0,1,0.4499512,1,1v5.5899658
	l1.2930298-1.2999268c0.3899536-0.3900146,1.0239868-0.3900146,1.4139404,0c0.3910522,0.3900146,0.3910522,1.0299072,0,1.4199219
	l-3,3C4.5202789,9.8900146,4.265274,10,4.0002594,10S3.4802399,9.8900146,3.2932892,9.7099609l-3-3
	c-0.3910522-0.3900146-0.3910522-1.0299072,0-1.4199219c0.3899536-0.3900146,1.0239868-0.3900146,1.4139404,0l1.2930298,1.2999268V1
	C3.0002594,0.4499512,3.4482574,0,4.0002594,0z"/>
</svg>
