<?xml version="1.0" encoding="utf-8"?>
<!-- Generator: Adobe Illustrator 19.2.1, SVG Export Plug-In . SVG Version: 6.00 Build 0)  -->
<svg version="1.1" id="Layer_1" xmlns="http://www.w3.org/2000/svg" xmlns:xlink="http://www.w3.org/1999/xlink" x="0px" y="0px"
	 viewBox="0 0 13 14" style="enable-background:new 0 0 13 14;" xml:space="preserve">
<path style="fill-rule:evenodd;clip-rule:evenodd;fill:#404040;" d="M12,2c0.552002,0,1-0.4499512,1-1s-0.447998-1-1-1H1
	C0.447998,0,0,0.4499512,0,1s0.447998,1,1,1v0.5999756C1,4.4200439,1.894989,6.0200195,3.2690125,7
	C1.894989,7.9799805,1,9.5799561,1,11.4000244V12c-0.552002,0-1,0.4499512-1,1s0.447998,1,1,1h11c0.552002,0,1-0.4499512,1-1
	s-0.447998-1-1-1v-0.5999756C12,9.5799561,11.105011,7.9799805,9.7309875,7C11.105011,6.0200195,12,4.4200439,12,2.5999756V2z
	 M6.6000061,8H6.3999939C4.5220032,8,3,9.5200195,3,11.4000244V12h7v-0.5999756C10,9.5200195,8.4779968,8,6.6000061,8z M6.6000061,6
	C8.4779968,6,10,4.4799805,10,2.5999756V2H3v0.5999756C3,4.4799805,4.5220032,6,6.3999939,6H6.6000061z"/>
</svg>
