<?xml version="1.0" encoding="utf-8"?>
<!-- Generator: Adobe Illustrator 19.2.1, SVG Export Plug-In . SVG Version: 6.00 Build 0)  -->
<svg version="1.1" id="Layer_1" xmlns="http://www.w3.org/2000/svg" xmlns:xlink="http://www.w3.org/1999/xlink" x="0px" y="0px"
	 viewBox="0 0 11 14.0210876" style="enable-background:new 0 0 11 14.0210876;" xml:space="preserve">
<path style="fill:#404040;" d="M4,5.5C4,4.6699219,4.6700439,4,5.5,4S7,4.6699219,7,5.5S6.3299561,7,5.5,7S4,6.3300781,4,5.5z"/>
<path style="fill-rule:evenodd;clip-rule:evenodd;fill:#404040;" d="M6.8900146,13.1000977
	c0.4499512-0.4301758,1.0400391-1.0400391,1.6400146-1.7800293C9.6899414,9.8798828,11,7.7700195,11,5.4699707
	C11,2.4399414,8.5300293,0,5.5,0S0,2.4399414,0,5.4699707c0,2.3000488,1.3100586,4.4099121,2.4699707,5.8500977
	c0.5999756,0.7399902,1.1900635,1.3498535,1.6400146,1.7800293c0.3800049,0.3598633,0.8399658,0.8898926,1.4000244,0.9199219
	C6.0600586,14.0500488,6.5300293,13.4399414,6.8900146,13.1000977z M2,5.4699707C2,3.5600586,3.5600586,2,5.5,2
	S9,3.5600586,9,5.4699707c0,1.5900879-0.9399414,3.25-2.0300293,4.6000977
	c-0.5300293,0.6499023-1.0599365,1.1999512-1.4599609,1.579834L5.5,11.6599121l-0.0100098-0.0100098
	c-0.4000244-0.3798828-0.9299316-0.9299316-1.4599609-1.579834C2.9399414,8.7199707,2,7.0600586,2,5.4699707z"/>
</svg>
