<?xml version="1.0" encoding="utf-8"?>
<!-- Generator: Adobe Illustrator 19.2.1, SVG Export Plug-In . SVG Version: 6.00 Build 0)  -->
<svg version="1.1" id="Layer_1" xmlns="http://www.w3.org/2000/svg" xmlns:xlink="http://www.w3.org/1999/xlink" x="0px" y="0px"
	 viewBox="0 0 14 14" style="enable-background:new 0 0 14 14;" xml:space="preserve">
<path style="fill:#404040;" d="M12,7c0-2.7600098-2.2390137-5-5-5S2,4.2399902,2,7c0,0.5500488-0.447998,1-1,1S0,7.5500488,0,7
	c0-3.8699951,3.1340027-7,7-7s7,3.1300049,7,7s-3.1340027,7-7,7c-0.552002,0-1-0.4499512-1-1s0.447998-1,1-1
	C9.7609863,12,12,9.7600098,12,7z"/>
<path style="fill:#404040;" d="M7.6099854,8.25C7.8559875,8.0600586,8,7.7700195,8,7.4599609V4c0-0.5500488-0.447998-1-1-1
	S6,3.4499512,6,4v2.9699707L4.3900146,8.2099609c-0.4370117,0.3300781-0.5190125,0.960083-0.1830139,1.4000244
	c0.3370056,0.4400635,0.9649963,0.5200195,1.4029846,0.1800537L7.6099854,8.25z"/>
</svg>
