<?xml version="1.0" encoding="utf-8"?>
<!-- Generator: Adobe Illustrator 19.2.1, SVG Export Plug-In . SVG Version: 6.00 Build 0)  -->
<svg version="1.1" id="Layer_1" xmlns="http://www.w3.org/2000/svg" xmlns:xlink="http://www.w3.org/1999/xlink" x="0px" y="0px"
	 viewBox="0 0 14 11" style="enable-background:new 0 0 14 11;" xml:space="preserve">
<path style="fill-rule:evenodd;clip-rule:evenodd;fill:#404040;" d="M14,1.9799805C13.9899902,0.8800049,13.1000977,0,12,0H2
	C0.8999023,0,0.0100098,0.8800049,0,1.9799805C0,1.9899902,0,2,0,2.0100098V9c0,1.0999756,0.8999023,2,2,2h10
	c1.1000977,0,2-0.9000244,2-2V2.0100098C14,2,14,1.9899902,14,1.9799805z M11.1999512,2L7,4.8000488L2.8000488,2H11.1999512z
	 M12,3.8699951L7.5700684,6.8199463C7.5300293,6.8499756,7.4799805,6.8800049,7.4299316,6.9100342
	C7.2900391,6.9699707,7.1398926,7,7,7S6.7099609,6.9699707,6.5700684,6.9100342
	C6.5200195,6.8800049,6.4699707,6.8499756,6.4299316,6.8199463L2,3.8699951V9h10V3.8699951z"/>
</svg>
