<?xml version="1.0" encoding="utf-8"?>
<!-- Generator: Adobe Illustrator 19.2.1, SVG Export Plug-In . SVG Version: 6.00 Build 0)  -->
<svg version="1.1" id="Слой_1" xmlns="http://www.w3.org/2000/svg" xmlns:xlink="http://www.w3.org/1999/xlink" x="0px" y="0px"
	 viewBox="0 0 384.3884277 393" style="enable-background:new 0 0 384.3884277 393;" xml:space="preserve">
<path style="fill:#D78A6E;" d="M367.8707275,0H17.4916592C11.3119144-0.0116894,5.6464987,3.4405518,2.8215837,8.9384212
	c-2.8638794,5.5719004-2.3612392,12.2815609,1.2975125,17.3703041l128.3641357,180.8257141
	c0.0428619,0.0623474,0.0896149,0.1207886,0.1324768,0.183136c4.664032,6.2966309,7.1850281,13.9219666,7.2006073,21.7615814
	v147.4255066c-0.0272675,4.3678894,1.6871643,8.5604553,4.7653351,11.6581116
	c3.078186,3.0976868,7.2629547,4.8354797,11.6269684,4.8354797c2.2209625,0,4.4146576-0.4441833,6.4641876-1.2936096
	l72.1307831-27.5049438c6.4641876-1.9715881,10.7541656-8.069519,10.7541656-15.4142761V229.0791626
	c0.0116882-7.8357239,2.5365753-15.4649506,7.1967163-21.7615814c0.0428619-0.0623474,0.0896149-0.1207886,0.1324768-0.183136
	L381.2471924,26.3009319c3.6587524-5.0848465,4.161377-11.7906113,1.2975159-17.3625107
	C379.7197876,3.440551,374.0543518-0.0116903,367.8707275,0z M236.6699829,195.4996948
	c-7.1694336,9.7294006-11.0463867,21.4927368-11.0697632,33.5794678v117.2826843l-65.8341522,25.1008301V229.0791626
	c-0.0233917-12.086731-3.9003296-23.8500671-11.0736694-33.5794678L24.0727367,19.9497433h337.2208252L236.6699829,195.4996948z"/>
</svg>
