<?xml version="1.0" encoding="utf-8"?>
<!-- Generator: Adobe Illustrator 19.2.1, SVG Export Plug-In . SVG Version: 6.00 Build 0)  -->
<svg version="1.1" id="Layer_1" xmlns="http://www.w3.org/2000/svg" xmlns:xlink="http://www.w3.org/1999/xlink" x="0px" y="0px"
	 viewBox="0 0 11 14" style="enable-background:new 0 0 11 14;" xml:space="preserve">
<path style="fill:#D78A6E;" d="M4,9c-0.552002,0-1,0.4499512-1,1s0.447998,1,1,1h3c0.552002,0,1-0.4499512,1-1S7.552002,9,7,9H4z"/>
<path style="fill-rule:evenodd;clip-rule:evenodd;fill:#393939;" d="M2,14h7c1.105011,0,2-0.8999023,2-2V2
	c0-1.1000977-0.894989-2-2-2H2C0.894989,0,0,0.8999023,0,2v10C0,13.1000977,0.894989,14,2,14z M9,12H2V2h7V12z"/>
</svg>
