<?xml version="1.0" encoding="utf-8"?>
<!-- Generator: Adobe Illustrator 19.2.1, SVG Export Plug-In . SVG Version: 6.00 Build 0)  -->
<svg version="1.1" id="Слой_1" xmlns="http://www.w3.org/2000/svg" xmlns:xlink="http://www.w3.org/1999/xlink" x="0px" y="0px"
	 viewBox="0 0 233.0000153 410" style="enable-background:new 0 0 233.0000153 410;" xml:space="preserve">
<path style="fill:#3F3F3F;" d="M165.8910065,100.9869995c0.5579834-0.6289978,3.1749878-2.6920166,13.4449768-2.6920166
	l33.6800232-0.0110168c10.9570007,0,19.8670044-8.9139709,19.8670044-19.8709717V19.5490112
	c0-10.9370422-8.8989868-19.8470459-19.8359985-19.8670044L163.022995-0.3999939c-30.875,0-57.125,10.18396-75.9059906,29.4569702
	c-18.6950073,19.184021-28.5780029,45.9650269-28.5780029,77.4450073v31.7459717H20.2700043
	c-10.9579926,0-19.8720093,8.9110413-19.8720093,19.868042v63.3939819c0,10.9570007,8.9140167,19.8670044,19.8720093,19.8670044
	h38.2689972v147.95401c0,10.9570007,8.9100037,19.8710022,19.8670044,19.8710022H144
	c10.9570007,0,19.8670044-8.9140015,19.8670044-19.8710022V241.3809814h46.7810211
	c10.9539795,0,19.8639832-8.9140015,19.8639832-19.8629913l0.0270081-63.3980103
	c0-7.1959686-3.9180298-13.8560028-10.2229919-17.3790131c-2.9210205-1.6289673-6.3240356-2.4930115-9.8280334-2.4930115
	h-46.6209869v-25.0820007C163.8670044,104.9909668,164.9690094,102.0339661,165.8910065,100.9869995L165.8910065,100.9869995z
	 M165.8910065,100.9869995"/>
<rect style="fill:none;" width="233.0000153" height="410"/>
</svg>
