<?xml version="1.0" encoding="utf-8"?>
<!-- Generator: Adobe Illustrator 19.2.1, SVG Export Plug-In . SVG Version: 6.00 Build 0)  -->
<svg version="1.1" id="Layer_1" xmlns="http://www.w3.org/2000/svg" xmlns:xlink="http://www.w3.org/1999/xlink" x="0px" y="0px"
	 viewBox="0 0 14.342062 14.345809" style="enable-background:new 0 0 14.342062 14.345809;" xml:space="preserve">
<path style="fill-rule:evenodd;clip-rule:evenodd;fill:#404040;" d="M10.2367277,12.3394251
	c0.367981,0.0200195,0.6220093-0.0700684,0.8349609-0.2800293l1.0599976-1.0600586l-1.2949829-1.3000488l-0.8300171,0.8100586
	c-0.3150024,0.3100586-0.7949829,0.380127-1.1809692,0.1699219C8.0887175,10.2693567,6.9546843,9.259347,5.9897184,8.2893763
	c-0.5-0.5000005-0.9869995-1.0300298-1.3920288-1.5100102C4.2066984,6.3093953,3.8446989,5.8294148,3.6387053,5.4292684
	C3.4427214,5.0393758,3.516696,4.5694051,3.8227262,4.2693563c0.2219849-0.2299805,0.492981-0.4799802,0.7179565-0.6899412
	c0.0310059-0.0300293,0.0620117-0.0600586,0.0900269-0.0900879L3.3506804,2.2092979L2.2897062,3.2693565
	C2.075717,3.4893272,1.981723,3.7393272,2.0027189,4.1094441C2.0246916,4.5093465,2.188693,5.0193563,2.5066862,5.6194539
	c0.6360474,1.1999512,1.7369995,2.4799809,2.7300415,3.4699712c0.9879761,0.9899902,2.2709961,2.0898438,3.4769897,2.7399902
	C9.3177214,12.1494837,9.832736,12.3194056,10.2367277,12.3394251z M7.773715,13.5894251
	c-1.4660034-0.7800293-2.9140015-2.0500488-3.9509888-3.0800781C2.7796965,9.4592981,1.5146819,8.0193567,0.7397186,6.5593953
	c-0.387024-0.7299805-0.6900024-1.5400391-0.7340088-2.3400879C-0.0412873,3.3794639,0.1977263,2.539376,0.8757049,1.8594443
	L2.2867155,0.449288c0.5549927-0.5598145,1.5009766-0.6298828,2.1109619-0.0200195l2.026001,2.0300293
	c0.6100464,0.6101074,0.5390015,1.5500486-0.0169678,2.1101072c-0.0599976,0.0600586-0.1929932,0.1799316-0.34198,0.3200684
	C6.0127287,4.9392781,5.9587126,4.989327,5.9057341,5.0393758C5.8786955,5.0694051,5.8517179,5.0894246,5.8246794,5.1194539
	c0.0890503,0.1098633,0.19104,0.2399902,0.3060303,0.3798828C6.4917326,5.9292684,6.938693,6.409493,7.4076872,6.8794637
	C8.0607023,7.5393758,8.7046843,8.1194544,9.1947355,8.509347l0.5849609-0.5800786
	c0.5560303-0.5498047,1.4990234-0.619873,2.1080322-0.0097656l2.0249634,2.0297856
	c0.6099854,0.6101074,0.5390015,1.5500488-0.0169678,2.1101074l-1.4100342,1.4099121
	c-0.6799927,0.6801758-1.5249634,0.920166-2.367981,0.8701172C9.3116789,14.2893763,8.5057096,13.9793177,7.773715,13.5894251z"/>
</svg>
