<?xml version="1.0" encoding="utf-8"?>
<!-- Generator: Adobe Illustrator 19.2.1, SVG Export Plug-In . SVG Version: 6.00 Build 0)  -->
<svg version="1.1" id="Слой_1" xmlns="http://www.w3.org/2000/svg" xmlns:xlink="http://www.w3.org/1999/xlink" x="0px" y="0px"
	 viewBox="0 0 135.2499847 135.25" style="enable-background:new 0 0 135.2499847 135.25;" xml:space="preserve">
<g>
	<path style="fill:#3F3F3F;" d="M97.9259949,0H37.3239746C16.7419739,0,0,16.742981,0,37.3249817v60.6010132
		C0,118.5079956,16.7419739,135.25,37.3239746,135.25h60.6020203c20.5820007,0,37.3239899-16.7460327,37.3239899-37.3240051
		V37.3249817C135.2499847,16.742981,118.5079956,0,97.9259949,0L97.9259949,0z M123.2499847,97.9259949
		c0,13.9649963-11.3590088,25.3239746-25.3239899,25.3239746H37.3239746C23.3589783,123.2499695,12,111.8909912,12,97.9259949
		V37.3249817C12,23.3599854,23.3589783,12,37.3239746,12h60.6020203c13.9649811,0,25.3239899,11.3599854,25.3239899,25.3249817
		V97.9259949z M123.2499847,97.9259949"/>
	<path style="fill:#3F3F3F;" d="M67.6249847,32.7779846c-19.2190094,0-34.8519745,15.6330261-34.8519745,34.8470154
		c0,19.2189941,15.6329651,34.8519897,34.8519745,34.8519897c19.2149963,0,34.852005-15.6329956,34.852005-34.8519897
		C102.4769897,48.4110107,86.8399811,32.7779846,67.6249847,32.7779846L67.6249847,32.7779846z M67.6249847,90.4729919
		c-12.5979919,0-22.8519745-10.2460022-22.8519745-22.8479919c0-12.5970154,10.2499695-22.8510132,22.8519745-22.8510132
		S90.4769897,55.0279846,90.4769897,67.625C90.4769897,80.2269897,80.2229767,90.4729919,67.6249847,90.4729919
		L67.6249847,90.4729919z M67.6249847,90.4729919"/>
	<path style="fill:#3F3F3F;" d="M103.9379883,22.6019592c-2.3130035,0-4.5830078,0.934021-6.2149963,2.5740356
		c-1.6450195,1.6329651-2.5859985,3.9059753-2.5859985,6.2269897c0,2.3120117,0.9450073,4.5820007,2.5859985,6.2220154
		c1.6289978,1.6329651,3.9019928,2.5749817,6.2149963,2.5749817c2.3200073,0,4.5820007-0.9420166,6.2220001-2.5749817
		c1.6410065-1.6400146,2.5780029-3.9140015,2.5780029-6.2220154c0-2.3210144-0.9369965-4.5940247-2.5780029-6.2269897
		C108.5269775,23.5359802,106.2579956,22.6019592,103.9379883,22.6019592L103.9379883,22.6019592z M103.9379883,22.6019592"/>
</g>
</svg>
