<svg viewBox="0 0 326 38" fill="none" xmlns="http://www.w3.org/2000/svg" preserveAspectRatio="xMinYMin meet">
<path d="M115.671 23.9386L111.041 12.9L106.327 23.9386H115.671ZM116.868 26.8333H105.129L101.821 34.6053H98.4307L111.122 5.70798L123.483 34.6053H120.093L116.868 26.8333Z" fill="#231F20"/>
<path d="M130.424 31.712H133.112C135.304 31.712 138.32 31.464 141.008 29.2307C143.075 27.4947 144.728 24.7666 144.728 20.8387C144.728 14.224 140.097 9.92399 133.112 9.92399H130.424V31.712ZM127.365 7.03066H132.988C135.757 7.03066 139.685 7.32 143.157 10.2547C145.68 12.3627 147.871 15.8773 147.871 20.8387C147.871 26.6266 145.019 29.728 143.033 31.4213C140.512 33.572 137.865 34.6053 132.947 34.6053H127.365V7.03066Z" fill="#231F20"/>
<path d="M167.791 9.92399H156.545V18.1107H167.46V21.004H156.545V31.712H167.791V34.6053H153.485V7.03066H167.791V9.92399" fill="#231F20"/>
<path d="M172.459 34.6053L177.048 5.50134L187.632 28.776L198.42 5.45866L202.72 34.6053H199.579L196.973 15.4227L187.589 35.7627L178.329 15.4227L175.6 34.6053H172.459" fill="#231F20"/>
<path d="M233.261 21.376H244.837C244.837 23.8986 244.301 27.536 242.028 30.4293C239.587 33.5293 235.867 35.06 231.649 35.06C223.547 35.06 217.387 29.1067 217.387 20.88C217.387 12.6933 223.753 6.65865 231.775 6.65865C235.66 6.65865 238.264 7.98133 240.415 9.63466C241.572 10.5453 242.605 11.5373 243.721 13.108L242.275 14.2653C241.489 12.9427 240.373 11.8266 239.629 11.2066C237.892 9.75865 235.164 8.31199 231.733 8.31199C224.663 8.31199 219.289 13.9347 219.289 20.9627C219.289 27.8667 224.499 33.4066 231.608 33.4066C236.321 33.4066 239.712 31.0093 241.199 28.736C242.275 27.0827 242.936 24.8067 243.02 23.0293H233.261V21.376" fill="#231F20"/>
<path d="M252.603 7.03066V32.952H260.293V34.6053H250.785V7.03066H252.603" fill="#231F20"/>
<path d="M278.191 23.8987L273.023 10.8347L267.772 23.8987H278.191ZM278.852 25.552H267.111L263.431 34.6053H261.447L273.064 6.204L284.516 34.6053H282.531L278.852 25.552Z" fill="#231F20"/>
<path d="M301.379 11.7013C299.684 8.39333 296.707 8.31199 295.963 8.31199C292.696 8.31199 290.836 10.668 290.836 13.4386C290.836 16.4146 292.904 17.4066 295.673 18.772C298.403 20.0946 299.765 20.6733 301.172 21.6653C302.371 22.492 304.107 23.9387 304.107 26.9987C304.107 31.6293 300.22 35.06 295.508 35.06C291.952 35.06 290.135 33.3653 289.1 32.1667C288.025 30.9253 287.571 29.852 287.321 29.148L288.893 28.4053C289.265 29.4786 289.968 30.5533 290.381 31.0507C291.621 32.6213 293.647 33.4066 295.549 33.4066C299.269 33.4066 302.204 30.6786 302.204 27.04C302.204 25.552 301.627 23.98 299.519 22.6987C298.692 22.2027 296.913 21.3347 294.392 20.0947C292.119 18.9773 290.753 18.2333 289.804 16.6627C289.183 15.6293 288.935 14.596 288.935 13.5213C288.935 10.3373 291.084 6.65865 296.004 6.65865C298.773 6.65865 301.296 7.98133 302.701 10.5853L301.379 11.7013" fill="#231F20"/>
<path d="M322.624 11.7013C320.928 8.39333 317.952 8.31199 317.207 8.31199C313.941 8.31199 312.081 10.668 312.081 13.4386C312.081 16.4146 314.148 17.4066 316.917 18.772C319.647 20.0946 321.011 20.6733 322.417 21.6653C323.616 22.492 325.352 23.9387 325.352 26.9987C325.352 31.6293 321.465 35.06 316.752 35.06C313.196 35.06 311.379 33.3653 310.345 32.1667C309.269 30.9253 308.815 29.852 308.567 29.148L310.139 28.4053C310.511 29.4786 311.212 30.5533 311.627 31.0507C312.865 32.6213 314.892 33.4066 316.795 33.4066C320.515 33.4066 323.449 30.6786 323.449 27.04C323.449 25.552 322.871 23.98 320.763 22.6987C319.936 22.2027 318.157 21.3347 315.637 20.0947C313.363 18.9773 311.999 18.2333 311.048 16.6627C310.427 15.6293 310.18 14.596 310.18 13.5213C310.18 10.3373 312.329 6.65865 317.249 6.65865C320.019 6.65865 322.54 7.98133 323.947 10.5853L322.624 11.7013" fill="#231F20"/>
<path d="M7.72134 26.304L0.787476 37.2933H14.3063L21.2396 26.304H7.72134Z" fill="#231F20"/>
<path d="M78.8557 36.5747H67.0355L44.8265 1.37866H56.6473L78.8557 36.5747ZM47.4973 36.5747L25.2907 1.37866H37.1104L59.3177 36.5747H47.4973ZM66.6396 37.2933H80.1579L57.0427 0.659989H43.4391L40.4729 5.36132L37.5068 0.659989H23.9011L9.26308 23.8613H22.7812L30.7041 11.304L33.7136 16.0733L20.3245 37.2933H33.8421L40.4729 26.7853L47.1016 37.2933H60.6197L47.2317 16.0733L50.2412 11.304L66.6396 37.2933" fill="#231F20"/>
</svg>
