<?xml version="1.0" encoding="utf-8"?>
<!-- Generator: Adobe Illustrator 19.2.1, SVG Export Plug-In . SVG Version: 6.00 Build 0)  -->
<svg version="1.1" id="Слой_1" xmlns="http://www.w3.org/2000/svg" xmlns:xlink="http://www.w3.org/1999/xlink" x="0px" y="0px"
	 viewBox="0 0 343.9205322 280.0005188" style="enable-background:new 0 0 343.9205322 280.0005188;" xml:space="preserve">
<path style="fill:#484747;" d="M342.7304993,248.8485413l-12.8900146-31.0939941
	c-1.7499695-4.2190247-6.5899658-6.2230225-10.8129578-4.4730225c-4.2149963,1.7470093-6.2180481,6.5859985-4.4680481,10.809021
	l5.2420349,12.644989l-27.9570007-11.5670166V101.883522c0-3.477005-2.1720276-6.5820007-5.4380188-7.7730103
	L179.9534912,55.3285141V28.2385178l9.6799927,9.6840057c1.6130219,1.6129913,3.730011,2.4219971,5.8509979,2.4219971
	c2.1140137,0,4.2310181-0.8090057,5.8480072-2.4219971c3.2299957-3.230011,3.2299957-8.4690094,0-11.6990204L177.5274963,2.4225082
	c-3.2299957-3.230011-8.4649963-3.230011-11.6950073,0l-23.8050079,23.8009949
	c-3.2259979,3.230011-3.2259979,8.4690094,0,11.6990204c3.2310028,3.2269897,8.4690094,3.2310028,11.7030029,0l9.6800079-9.6840057
	v27.0899963L56.957489,94.1135178c-3.2690125,1.1880035-5.4409943,4.2929993-5.4409943,7.7700043v123.284996l-27.9539795,11.5670166
	l5.242981-12.644989c1.75-4.2230225-0.2539978-9.0620117-4.4730225-10.809021
	c-4.2229919-1.7530212-9.0589895,0.2539978-10.8089895,4.4730225L0.6334695,248.8485413
	c-0.8439636,2.0269775-0.8439636,4.3049927-0.0039673,6.3320007c0.8399963,2.0269775,2.4489746,3.6369934,4.4760132,4.4759827
	l31.0939636,12.8909912c1.0350037,0.4300232,2.1100159,0.6330261,3.1640015,0.6330261
	c3.2460022,0,6.3250122-1.9219971,7.6450195-5.1090088c1.75-4.2189941-0.2500305-9.0589905-4.4730225-10.809021
	l-12.6479797-5.2419739l29.7460022-12.309021l109.2189941,39.7890015c0,0,1.5540161,0.5,2.8389893,0.5
	c1.2860107,0,2.8210144-0.5,2.8210144-0.5l109.2150116-39.7890015l29.7460022,12.309021l-12.6489868,5.2419739
	c-4.2190247,1.7500305-6.2220154,6.5900269-4.4720154,10.809021c1.3200073,3.1870117,4.4020081,5.1090088,7.6439819,5.1090088
	c1.0550232,0,2.1289978-0.2030029,3.1640015-0.6330261l31.0940247-12.8909912
	c2.0270081-0.8389893,3.6369934-2.4490051,4.4759827-4.4759827
	C343.5705261,253.1535339,343.5705261,250.8755188,342.7304993,248.8485413L342.7304993,248.8485413z M163.4104919,259.9145203
	l-81.1519928-29.5620117l81.1519928-32.9059753V259.9145203z M163.4104919,179.6105347L68.059494,218.0945129V114.6375198
	l95.3509979,38.4800034V179.6105347z M163.4104919,135.2814941l-81.1829987-32.7689743l81.1829987-29.5740051V135.2814941z
	 M179.9534912,72.9385147l81.184021,29.5740051l-81.184021,32.7689743V72.9385147z M179.9534912,259.9145203v-62.4679871
	l81.1490173,32.9059753L179.9534912,259.9145203z M275.3014832,218.0945129l-95.3479919-38.4839783V153.121521
	l95.3479919-38.4840012V218.0945129z M275.3014832,218.0945129"/>
<rect x="0.0005044" y="0.1595078" style="fill:none;" width="343.9200134" height="279.8410034"/>
</svg>
