<?xml version="1.0" encoding="utf-8"?>
<!-- Generator: Adobe Illustrator 19.2.1, SVG Export Plug-In . SVG Version: 6.00 Build 0)  -->
<svg version="1.1" id="Слой_1" xmlns="http://www.w3.org/2000/svg" xmlns:xlink="http://www.w3.org/1999/xlink" x="0px" y="0px"
	 viewBox="0 0 409.6019897 409.5970154" style="enable-background:new 0 0 409.6019897 409.5970154;" xml:space="preserve">
<path d="M102.397995,68.2650146H81.9219971c0-7.5269775-6.1250153-13.6520081-13.6560059-13.6520081H13.6519775
	C6.125,54.6130066,0,60.7380371,0,68.2650146v13.6570129c0,7.5269775,6.125,13.6520081,13.6519775,13.6520081h54.6140137
	c7.5309906,0,13.6560059-6.1250305,13.6560059-13.6520081h20.4759979c3.769989,0,6.8289795-3.0589905,6.8289795-6.8280029
	C109.2269745,71.3240051,106.167984,68.2650146,102.397995,68.2650146L102.397995,68.2650146z M68.272995,75.1210022v6.8010254
	H13.6519775V68.2650146h54.6140137l0.0070038,6.8089905c0,0.0040283-0.0070038,0.0040283-0.0070038,0.0200195
	C68.2659912,75.1010132,68.272995,75.1050415,68.272995,75.1210022L68.272995,75.1210022z M68.272995,75.1210022"/>
<path style="fill:#D0876C;" d="M204.8009949,314.0270081c-3.7700043,0-6.8280029,3.0589905-6.8280029,6.8240051v81.9219971
	c0,3.7659912,3.0579987,6.8240051,6.8280029,6.8240051c3.7649841,0,6.8240051-3.0580139,6.8240051-6.8240051v-81.9219971
	C211.625,317.0859985,208.565979,314.0270081,204.8009949,314.0270081L204.8009949,314.0270081z M204.8009949,314.0270081"/>
<path d="M395.9449768,54.6130066h-54.6129761c-7.5270081,0-13.6520081,6.1250305-13.6520081,13.6520081h-20.4809875
	c-3.7650452,0-6.8240051,3.0589905-6.8240051,6.82901c0,3.7690125,3.05896,6.8280029,6.8240051,6.8280029h20.4809875
	c0,7.5269775,6.125,13.6520081,13.6520081,13.6520081h54.6129761c7.5320129,0,13.6570129-6.1250305,13.6570129-13.6520081
	V68.2650146C409.6019897,60.7380371,403.4769897,54.6130066,395.9449768,54.6130066L395.9449768,54.6130066z
	 M341.3320007,81.9220276V68.2650146h54.6129761l0.0079956,13.6570129H341.3320007z M341.3320007,81.9220276"/>
<path d="M225.2810059,54.6130066h-40.9610138c-3.7690125,0-6.8280029,3.059021-6.8280029,6.8280334
	c0,3.7659912,3.0589905,6.8239746,6.8280029,6.8239746h40.9610138c3.765976,0,6.8239746-3.0579834,6.8239746-6.8239746
	C232.1049805,57.6720276,229.0469818,54.6130066,225.2810059,54.6130066L225.2810059,54.6130066z M225.2810059,54.6130066"/>
<path d="M225.2810059,27.3039856h-40.9610138c-3.7690125,0-6.8280029,3.0590515-6.8280029,6.82901
	c0,3.7690125,3.0589905,6.8280334,6.8280029,6.8280334h40.9610138c3.765976,0,6.8239746-3.059021,6.8239746-6.8280334
	C232.1049805,30.3630371,229.0469818,27.3039856,225.2810059,27.3039856L225.2810059,27.3039856z M225.2810059,27.3039856"/>
<path d="M225.2810059,81.9220276h-40.9610138c-3.7690125,0-6.8280029,3.0540161-6.8280029,6.8239746
	c0,3.7689819,3.0589905,6.8280334,6.8280029,6.8280334h40.9610138c3.765976,0,6.8239746-3.0590515,6.8239746-6.8280334
	C232.1049805,84.9760437,229.0469818,81.9220276,225.2810059,81.9220276L225.2810059,81.9220276z M225.2810059,81.9220276"/>
<path d="M252.5859985,0h-95.5740204c-18.8209991,0-34.1329803,15.3120117-34.1329803,34.1329956v109.2260437
	c0,16.4879761,11.75,30.2699738,27.3089905,33.4449768v41.6490021c0,7.5309906,6.1210022,13.6519928,13.6519928,13.6519928
	h13.6520081v54.6140137c0,7.5309753,6.125,13.6560059,13.6559906,13.6560059h27.3050232
	c7.5309753,0,13.6519775-6.1250305,13.6519775-13.6560059V232.105011h13.6570129
	c7.5270081,0,13.6519775-6.1210022,13.6519775-13.6519928v-41.6490021
	c15.5589905-3.1750031,27.3050232-16.960022,27.3050232-33.4449768V34.1329956C286.7189941,15.3120117,271.4059753,0,252.5859985,0
	L252.5859985,0z M273.0660095,143.3590393c0,11.2929688-9.1870422,20.4809723-20.480011,20.4809723
	c-3.7660065,0-6.8240051,3.0579987-6.8240051,6.8280029v47.7850037H211.625c-3.7660217,0-6.8240051,3.0589905-6.8240051,6.8239899
	c0,3.7700043,3.0579834,6.8280029,6.8240051,6.8280029h6.8280029v54.6140137H191.144989v-61.4380035
	c0-3.7690125-3.0549927-6.8280029-6.8249969-6.8280029h-20.480011v-40.9609985h61.4410248
	c3.765976,0,6.8239746-3.0590057,6.8239746-6.8240051c0-3.7700043-3.0579987-6.8280029-6.8239746-6.8280029h-68.2690277
	c-11.2889709,0-20.4769897-9.1880035-20.4769897-20.4809723V34.1329956c0-11.2889709,9.1880188-20.480957,20.4769897-20.480957
	h95.5740204c11.2929688,0,20.480011,9.1919861,20.480011,20.480957V143.3590393z M273.0660095,143.3590393"/>
</svg>
