<?xml version="1.0" encoding="utf-8"?>
<!-- Generator: Adobe Illustrator 19.2.1, SVG Export Plug-In . SVG Version: 6.00 Build 0)  -->
<svg version="1.1" id="Capa_1" xmlns="http://www.w3.org/2000/svg" xmlns:xlink="http://www.w3.org/1999/xlink" x="0px" y="0px"
	 viewBox="-33 157 480 480" style="enable-background:new -33 157 480 480;" xml:space="preserve">
<path d="M399,469c-4.4199829,0-8,3.5800171-8,8v64h16v-64C407,472.5800171,403.4199829,469,399,469z M399,349h-88V165
	c0-4.4199829-3.5800171-8-8-8H111c-4.4199829,0-8,3.5800171-8,8v72c0,4.4199829,3.5800171,8,8,8s8-3.5800171,8-8v-64h56v56
	c0,4.4199829,3.5800171,8,8,8h48c4.4199829,0,8-3.5800171,8-8v-56h56v176H119v-80c0-4.4199829-3.5800171-8-8-8s-8,3.5800171-8,8v80
	H63c-4.4199829,0-8,3.5800171-8,8s3.5800171,8,8,8h16v56c0,4.4199829,3.5800171,8,8,8h48c4.4199829,0,8-3.5800171,8-8v-56h56v176h16
	V365h56v56c0,4.4199829,3.5800171,8,8,8h48c4.4199829,0,8-3.5800171,8-8v-56h56v80c0,4.4199829,3.5800171,8,8,8s8-3.5800171,8-8v-88
	C407,352.5800171,403.4199829,349,399,349z M223,221h-32v-48h32V221z M127,413H95v-48h32V413z M319,413h-32v-48h32V413z M31,349H15
	c-4.4199829,0-8,3.5800171-8,8v184h16V365h8c4.4199829,0,8-3.5800171,8-8S35.4199829,349,31,349z"/>
<path d="M263,509v8c0,4.4182739,3.5817261,8,8,8s8-3.5817261,8-8v-8c0-4.4182739-3.5817261-8-8-8S263,504.5817261,263,509z"/>
<path d="M231,509v8c0,4.4182739,3.5817261,8,8,8s8-3.5817261,8-8v-8c0-4.4182739-3.5817261-8-8-8S231,504.5817261,231,509z"/>
<path d="M87,517v-8c0-4.4182739-3.5817261-8-8-8c-4.4182816,0-8,3.5817261-8,8v8c0,4.4182739,3.5817184,8,8,8
	C83.4182739,525,87,521.4182739,87,517z"/>
<path d="M39,509v8c0,4.4182739,3.5817184,8,8,8s8-3.5817261,8-8v-8c0-4.4182739-3.5817184-8-8-8S39,504.5817261,39,509z"/>
<path d="M183,325v-8c0-4.4182739-3.5817261-8-8-8s-8,3.5817261-8,8v8c0,4.4182739,3.5817261,8,8,8S183,329.4182739,183,325z"/>
<path d="M151,325v-8c0-4.4182739-3.5817261-8-8-8s-8,3.5817261-8,8v8c0,4.4182739,3.5817261,8,8,8S151,329.4182739,151,325z"/>
<path style="fill:#D78A6E;" d="M335,589c4.4182739,0,8-3.5817261,8-8s-3.5817261-8-8-8h-8c-4.4182739,0-8,3.5817261-8,8
	s3.5817261,8,8,8H335z"/>
<path style="fill:#D78A6E;" d="M439,541H-25c-4.4199829,0-8,3.5800171-8,8v80c0,4.4199829,3.5800171,8,8,8h48
	c4.4199829,0,8-3.5800171,8-8v-40h144v40c0,4.4199829,3.5800171,8,8,8h48c4.4199829,0,8-3.5800171,8-8v-40h56
	c4.4199829,0,8-3.5800171,8-8s-3.5800171-8-8-8H-17v-16h448v16h-64c-4.4199829,0-8,3.5800171-8,8s3.5800171,8,8,8h16v40
	c0,4.4199829,3.5800171,8,8,8h48c4.4199829,0,8-3.5800171,8-8v-80C447,544.5800171,443.4199829,541,439,541z M191,589h32v32h-32V589
	z M15,589v32h-32v-32H15z M431,621h-32v-32h32V621z"/>
</svg>
