<?xml version="1.0" encoding="utf-8"?>
<!-- Generator: Adobe Illustrator 19.2.1, SVG Export Plug-In . SVG Version: 6.00 Build 0)  -->
<svg version="1.1" id="Capa_1" xmlns="http://www.w3.org/2000/svg" xmlns:xlink="http://www.w3.org/1999/xlink" x="0px" y="0px"
	 viewBox="-49 157 512 480" style="enable-background:new -49 157 512 480;" xml:space="preserve">
<path style="fill:#484848;" d="M371.9639893,324.8099976C371.9799805,323.8739929,372,322.9400024,372,322
	c0-90.9810028-74.0189819-165-165-165S42,231.0189972,42,322c0,0.9389954,0.0199966,1.8739929,0.0360031,2.809021
	C-11.9339981,352.0769958-49,407.8150024-49,472c0,90.9810181,74.4670029,165,166,165
	c33.1809998,0,64.098999-9.8540039,90-26.776001C232.901001,627.1459961,263.8190002,637,297,637
	c91.5319824,0,166-74.0189819,166-165C463,407.8150024,425.9339905,352.0769958,371.9639893,324.8099976z M207,187
	c71.4429932,0,130.0910034,55.7859955,134.697998,126.0830078C327.4710083,309.1239929,312.4809875,307,297,307
	c-33.1809998,0-64.098999,9.8540039-90,26.776001C181.098999,316.8540039,150.1809998,307,117,307
	c-15.4810028,0-30.4710083,2.1239929-44.697998,6.0830078C76.9089966,242.7860107,135.5570068,187,207,187z M207,371.4700012
	c22.3989868,20.072998,38.0700073,47.5010071,43.1839905,78.446991C236.618988,454.5090027,222.0950012,457,207,457
	s-29.6190033-2.4909973-43.1839905-7.0830078C168.9299927,418.9710083,184.6009979,391.5429993,207,371.4700012z
	 M135.822998,436.6610107c-32.3560028-20.1579895-55.5979919-53.6190186-62.022995-92.6759949
	C87.378006,339.4580078,101.9049988,337,117,337c23.5740051,0,45.7510071,6.0800171,65.0589905,16.7449951
	C159.2799988,375.8909912,142.8600006,404.5379944,135.822998,436.6610107z M231.9410095,353.7449951
	C251.2489929,343.0800171,273.4259949,337,297,337c15.0950012,0,29.6220093,2.4580078,43.2000122,6.9849854
	c-6.4249878,39.0570068-29.6669922,72.5180054-62.0230103,92.6760254
	C271.1400146,404.5379944,254.7200012,375.8909912,231.9410095,353.7449951z M117,607c-74.9909973,0-136-60.5610352-136-135
	c0-48.5280151,25.9329987-91.151001,64.7600021-114.9490051c10.6100006,48.8500061,42.9090042,89.7049866,86.2789993,111.9159851
	C132.0200043,469.9769897,132,470.9859924,132,472c0,46.3320313,19.2030029,88.2559814,50.0589905,118.2550049
	C162.7510071,600.9200439,140.5740051,607,117,607z M207,572.5300293
	c-25.5449982-22.8930664-42.3410034-55.3520508-44.7030029-91.6870117C176.5200043,484.8510132,191.5130005,487,207,487
	s30.480011-2.1489868,44.7030029-6.1570129C249.3410034,517.1779785,232.5450134,549.6369629,207,572.5300293z M297,607
	c-23.5740051,0-45.7510071-6.0799561-65.0589905-16.7449951C262.7969971,560.2559814,282,518.3320313,282,472
	c0-1.0140076-0.019989-2.0230103-0.0390015-3.0329895c43.3699951-22.2109985,75.6690063-63.0660095,86.2789917-111.9159851
	C407.0669861,380.848999,433,423.4719849,433,472C433,546.4389648,371.9899902,607,297,607z"/>
</svg>
