<?xml version="1.0" encoding="utf-8"?>
<!-- Generator: Adobe Illustrator 19.2.1, SVG Export Plug-In . SVG Version: 6.00 Build 0)  -->
<svg version="1.1" id="Capa_1" xmlns="http://www.w3.org/2000/svg" xmlns:xlink="http://www.w3.org/1999/xlink" x="0px" y="0px"
	 viewBox="0 0 512 247.9998474" style="enable-background:new 0 0 512 247.9998474;" xml:space="preserve">
<g>
	<g>
		<path d="M5.8652234,138.1569061c0.007019,0.006012,0.0119934,0.0130005,0.0180054,0.0190125l104.5039978,104
			c7.8280029,7.7900085,20.4919968,7.7630005,28.284996-0.0679932c7.7920227-7.82901,7.7620239-20.4920044-0.0669861-28.2839966
			l-70.1619797-69.8240051h423.5570068c11.04599,0,19.9999695-8.95401,19.9999695-20c0-11.0460052-8.9539795-20-19.9999695-20
			H68.4422531l70.1640244-69.8240051c7.8289795-7.7919903,7.8589783-20.4550018,0.0669861-28.2839966
			c-7.7929993-7.8299866-20.455986-7.8589935-28.284996-0.0679932l-104.5039978,104
			c-0.007019,0.0059967-0.0119934,0.0130005-0.0180054,0.0189972
			C-1.9427297,117.6349182-1.9677541,130.338913,5.8652234,138.1569061z"/>
	</g>
</g>
</svg>
